<svg xmlns="http://www.w3.org/2000/svg" viewBox="0 0 1049.319 129.0196">
  <g>
    <g>
      <g>
        <path d="M286.9769,67.2389h20.0063v14.8051c-1.7705,1.7452-4.1133,3.147-7.0463,4.1948-3.5229,1.258-7.8011,1.887-12.8342,1.887-6.209,0-11.4305-1.2366-15.6654-3.7119-4.237-2.4732-7.4451-6.0807-9.6255-10.8209-2.1824-4.7381-3.2718-10.4633-3.2718-17.175,0-6.4586,1.0894-11.9948,3.2718-16.6092,2.1804-4.6123,5.2413-8.1572,9.1849-10.6324,3.9421-2.4732,8.5565-3.7119,13.8411-3.7119,5.7033,0,10.4633,1.4057,14.2811,4.2156,3.8163,2.8114,6.1438,6.6903,6.9832,11.6388h19.3773c-.6723-6.1224-2.8308-11.513-6.48-16.1686-3.6487-4.6556-8.4301-8.3242-14.3443-11.0098-5.9136-2.6836-12.604-4.0266-20.069-4.0266-9.0597,0-17.008,1.9721-23.844,5.9141-6.838,3.9436-12.1858,9.4172-16.0428,16.4202-3.8596,7.0046-5.7878,15.1205-5.7878,24.3472,0,9.3113,1.9069,17.4485,5.7247,24.4103,3.8163,6.9633,9.2486,12.3743,16.2944,16.2313,7.0463,3.8596,15.477,5.7883,25.2909,5.7883,9.0597,0,16.7982-1.2784,23.215-3.8382,6.4173-2.5578,12.058-6.2696,16.924-11.1356v-35.8602h-39.3836v14.8475Z" style="fill: #fff;"/>
        <path d="M363.3535,40.8152c-2.6142,2.168-4.6666,5.0901-6.1657,8.7583v-11.778h-18.4962v64.1714h18.8741v-33.4695c0-5.2006,1.4251-8.8707,4.2777-11.0098,2.8511-2.1391,7.2979-3.2087,13.3379-3.2087,1.0889,0,2.0128.0214,2.7681.0626.7548.0433,1.3405.1477,1.7612.3148v-17.6156c-.7548-.3341-1.9303-.5032-3.5229-.5032-5.1176,0-9.3958,1.4271-12.8342,4.2777Z" style="fill: #fff;"/>
        <path d="M433.0484,40.5636c-4.866-2.6836-10.6126-4.0261-17.2382-4.0261-6.8793,0-12.9187,1.4057-18.1188,4.2151-5.2021,2.8114-9.2486,6.7122-12.1425,11.702-2.8939,4.9918-4.3409,10.801-4.3409,17.4266,0,6.5431,1.447,12.331,4.3409,17.364s6.9837,8.9552,12.2683,11.7646c5.2846,2.8114,11.4911,4.2156,18.622,4.2156,7.9682,0,14.49-1.7816,19.5663-5.3478,5.0743-3.5647,8.6604-8.45,10.7577-14.659h-17.7414c-1.0909,2.2649-2.7269,3.9008-4.9072,4.9072-2.1824,1.0069-4.7814,1.5101-7.8011,1.5101-5.4537,0-9.543-1.5926-12.2678-4.7814-1.9307-2.2563-3.1632-5.372-3.7266-9.3113h47.5769c.1671-1.0064.2929-2.076.3774-3.2082.0825-1.1327.1258-2.3693.1258-3.7119,0-6.4586-1.3431-12.0794-4.0266-16.8608-2.6856-4.7814-6.4601-8.5132-11.3241-11.1988ZM415.5586,50.1265c4.2782,0,7.6534,1.2386,10.1287,3.7119,2.0975,2.0992,3.2972,5.1891,3.6163,9.2481h-28.6971c.652-3.2502,1.7922-5.8999,3.4391-7.9269,2.7248-3.3538,6.5625-5.033,11.513-5.033Z" style="fill: #fff;"/>
        <path d="M512.4946,88.7553v-28.3112c0-7.7166-2.434-13.6302-7.2979-17.7414-4.866-4.1091-11.9123-6.1652-21.1385-6.1652-8.8926,0-15.8977,1.8875-21.0132,5.662-5.1176,3.775-8.096,8.5559-8.9333,14.3443h17.993c.5857-2.0958,1.8244-3.6905,3.7119-4.7814,1.8875-1.0894,4.4234-1.6359,7.6122-1.6359,3.3543,0,5.8922.7354,7.6127,2.2023,1.7184,1.4683,2.5792,3.5031,2.5792,6.1026v3.3019l-15.8539,2.2344c-8.0527,1.0909-14.3244,3.4603-18.811,7.109-4.4886,3.6492-6.7316,8.452-6.7316,14.4069,0,5.3692,1.8875,9.6693,5.662,12.8973,3.775,3.2301,8.8493,4.8446,15.2249,4.8446,5.4517,0,10.0661-1.2173,13.8411-3.6492,3.029-1.9516,5.4255-4.6737,7.2125-8.1386.0467,1.6809.1348,3.2294.2739,4.6156.2083,2.0974.5664,4.0694,1.0696,5.9136h18.8741c-.6723-2.432-1.1541-4.7183-1.447-6.8574-.2949-2.1391-.4406-4.2568-.4406-6.3542ZM489.4685,86.1757c-2.7681,2.1391-6.1245,3.2087-10.0661,3.2087-2.5165,0-4.5298-.5445-6.0399-1.6359-1.5096-1.0889-2.2649-2.6836-2.2649-4.7814,0-2.3474.7966-4.1932,2.3907-5.5362,1.5926-1.3405,4.0679-2.2649,7.4237-2.7681l12.7084-1.9472v5.9739c0,2.8527-1.3838,5.3473-4.1519,7.4864Z" style="fill: #fff;"/>
        <path d="M547.8898,16.4054l-18.8736,7.0458v14.3443h-11.9536v14.3443h11.9536v27.0527c0,8.1373,1.9914,14.1986,5.9763,18.182,3.9833,3.9849,10.0859,5.9768,18.3078,5.9768,2.432,0,4.6342-.1691,6.6058-.5037,1.97-.3361,3.5015-.7981,4.593-1.3838v-14.3443c-1.0915.3361-2.1824.629-3.2718.8806-1.0909.2516-2.2644.3779-3.5229.3779-3.3559,0-5.8311-.712-7.4237-2.1391-1.5947-1.4256-2.3907-3.5647-2.3907-6.4173v-27.6817h16.6092v-14.3443h-16.6092v-21.3901Z" style="fill: #fff;"/>
        <path d="M644.021,67.2389h20.0063v14.8051c-1.7705,1.7452-4.1133,3.147-7.0463,4.1948-3.5229,1.258-7.8011,1.887-12.8342,1.887-6.209,0-11.4305-1.2366-15.6654-3.7119-4.237-2.4732-7.4451-6.0807-9.6255-10.8209-2.1824-4.7381-3.2718-10.4633-3.2718-17.175,0-6.4586,1.0894-11.9948,3.2718-16.6092,2.1804-4.6123,5.2413-8.1572,9.1849-10.6324,3.9421-2.4732,8.5565-3.7119,13.8411-3.7119,5.7033,0,10.4633,1.4057,14.2811,4.2156,3.8163,2.8114,6.1438,6.6903,6.9832,11.6388h19.3773c-.6723-6.1224-2.8308-11.513-6.48-16.1686-3.6487-4.6556-8.4301-8.3242-14.3443-11.0098-5.9136-2.6836-12.604-4.0266-20.069-4.0266-9.0597,0-17.008,1.9721-23.844,5.9141-6.838,3.9436-12.1858,9.4172-16.0428,16.4202-3.8596,7.0046-5.7878,15.1205-5.7878,24.3472,0,9.3113,1.9069,17.4485,5.7247,24.4103,3.8163,6.9633,9.2486,12.3743,16.2944,16.2313,7.0463,3.8596,15.477,5.7883,25.2909,5.7883,9.0597,0,16.7982-1.2784,23.215-3.8382,6.4173-2.5578,12.058-6.2696,16.924-11.1356v-35.8602h-39.3836v14.8475Z" style="fill: #fff;"/>
        <path d="M751.6521,88.7553v-28.3112c0-7.7166-2.434-13.6302-7.2979-17.7414-4.866-4.1091-11.9123-6.1652-21.1385-6.1652-8.8926,0-15.8977,1.8875-21.0132,5.662-5.1176,3.775-8.096,8.5559-8.9333,14.3443h17.993c.5857-2.0958,1.8244-3.6905,3.7119-4.7814,1.8875-1.0894,4.4234-1.6359,7.6122-1.6359,3.3543,0,5.8922.7354,7.6127,2.2023,1.7184,1.4683,2.5792,3.5031,2.5792,6.1026v3.3019l-15.8539,2.2344c-8.0527,1.0909-14.3244,3.4603-18.811,7.109-4.4886,3.6492-6.7316,8.452-6.7316,14.4069,0,5.3692,1.8875,9.6693,5.662,12.8973,3.775,3.2301,8.8493,4.8446,15.2249,4.8446,5.4517,0,10.0661-1.2173,13.8411-3.6492,3.029-1.9516,5.4255-4.6737,7.2125-8.1386.0467,1.6809.1348,3.2294.2739,4.6156.2083,2.0974.5664,4.0694,1.0696,5.9136h18.8741c-.6723-2.432-1.1541-4.7183-1.447-6.8574-.2949-2.1391-.4406-4.2568-.4406-6.3542ZM728.626,86.1757c-2.7681,2.1391-6.1245,3.2087-10.0661,3.2087-2.5165,0-4.5298-.5445-6.0399-1.6359-1.5096-1.0889-2.2649-2.6836-2.2649-4.7814,0-2.3474.7966-4.1932,2.3907-5.5362,1.5926-1.3405,4.0679-2.2649,7.4237-2.7681l12.7084-1.9472v5.9739c0,2.8527-1.3838,5.3473-4.1519,7.4864Z" style="fill: #fff;"/>
        <path d="M846.4999,36.5375c-5.8729,0-10.884,1.4057-15.0364,4.2151-3.1998,2.1664-5.7833,4.8981-7.7623,8.1839-.9312-2.5082-2.3614-4.7585-4.3171-6.7369-3.7333-3.7745-8.9552-5.662-15.6654-5.662-5.6208,0-10.4236,1.4057-14.4069,4.2151-3.2549,2.2964-5.8694,5.2321-7.8643,8.7862v-11.7433h-18.4962v64.1714h18.8741v-35.4828c0-3.0197.629-5.6406,1.887-7.8643,1.2585-2.2216,2.9983-3.9421,5.222-5.1588,2.2216-1.2152,4.675-1.8244,7.3606-1.8244,3.1027,0,5.5148.7767,7.2353,2.3276,1.7184,1.5534,2.5792,3.9635,2.5792,7.2353v40.7674h18.8741v-35.4828c0-3.0197.629-5.6406,1.8875-7.8643,1.258-2.2216,2.9978-3.9421,5.2215-5.1588,2.2216-1.2152,4.6755-1.8244,7.3611-1.8244,3.1022,0,5.5143.7767,7.2348,2.3276,1.7184,1.5534,2.5797,3.9635,2.5797,7.2353v40.7674h18.8736v-44.2909c0-6.291-1.8677-11.3872-5.5989-15.2875-3.7338-3.9008-9.0816-5.851-16.0428-5.851Z" style="fill: #fff;"/>
        <rect x="879.3027" y="37.7955" width="18.8741" height="64.1714" style="fill: #fff;"/>
        <rect x="878.6737" y="8.8559" width="20.1321" height="20.3837" style="fill: #fff;"/>
        <path d="M951.5146,36.5375c-5.9574,0-10.9686,1.4057-15.0364,4.2151-3.3265,2.2981-5.9823,5.2366-7.9901,8.7944v-11.7515h-18.4962v64.1714h18.8741v-34.4764c0-3.1868.6484-5.9549,1.9502-8.3043,1.2993-2.3474,3.1022-4.1937,5.4104-5.5362,2.3062-1.341,4.9271-2.0133,7.8643-2.0133,3.4384,0,6.0593.8806,7.8638,2.6423,1.803,1.7617,2.7055,4.404,2.7055,7.9269v39.761h18.8741v-43.4098c0-6.7102-1.8875-12.058-5.6625-16.0428-3.7745-3.9833-9.2282-5.9768-16.3571-5.9768Z" style="fill: #fff;"/>
        <path d="M1030.8222,37.7955v10.9939c-1.1075-3.2198-3.0519-5.8815-5.851-7.9742-3.8178-2.8506-8.7449-4.2777-14.7843-4.2777-5.8724,0-11.0098,1.3425-15.4138,4.0261-4.4035,2.6856-7.8225,6.4606-10.2545,11.3246-2.434,4.866-3.6492,10.5693-3.6492,17.1124,0,6.4601,1.174,12.0794,3.5234,16.8608,2.3474,4.7809,5.6401,8.4928,9.8771,11.1356,4.2349,2.6423,9.2048,3.9635,14.9106,3.9635,5.9549,0,10.9467-1.3624,14.9733-4.0898,2.9622-2.0048,5.0539-4.5485,6.291-7.6219v10.2016c0,4.6123-1.3013,8.0095-3.9003,10.1919-2.6011,2.1804-6.7535,3.2713-12.4568,3.2713-3.4409,0-6.2717-.4207-8.4933-1.258-2.2237-.8393-3.6706-2.0566-4.3414-3.6492h-17.8672c1.0069,6.4586,4.2981,11.5762,9.8776,15.3512,5.5775,3.7745,12.8123,5.662,21.7049,5.662,10.6518,0,19.0412-2.6642,25.1651-7.9901,6.1224-5.3279,9.1855-12.604,9.1855-21.8307v-61.4033h-18.4967ZM1026.5445,81.8974c-2.7686,3.0635-6.3761,4.593-10.8214,4.593-4.5298,0-8.2004-1.5101-11.0098-4.5298-2.8114-3.0197-4.2151-7.3805-4.2151-13.0858s1.4037-10.1073,4.2151-13.2121c2.8094-3.1022,6.3954-4.6551,10.7582-4.6551,4.5298,0,8.1984,1.5315,11.0098,4.5925,2.8094,3.063,4.2151,7.4451,4.2151,13.1489s-1.3838,10.0875-4.1519,13.1484Z" style="fill: #fff;"/>
      </g>
      <g>
        <path d="M198.6132,41.7602h-36.9777c-4.6503,0-8.9015,2.6274-10.9811,6.7868l-7.0301,14.0605c-.3444.6888.0039,1.2524.774,1.2524h36.6526l-2.7228,7.9624c-3.3972,9.9347-12.7351,16.6103-23.2346,16.6103h-13.1888c-7.3364,0-14.1698-3.2789-18.7737-8.7491-.4549-.5405-1.1025-.4561-1.4225.1737l-5.3774,10.5835c-1.782,3.5068-3.8792,6.7771-6.2449,9.7862-.2837.3609-.2378.9004.1125,1.1971,8.6904,7.3592,19.8282,11.5639,31.7055,11.5639h14.4166c20.9986,0,39.674-13.3507,46.4688-33.2196l7.4406-21.7574c3.0565-8.9378-2.1712-16.2505-11.6172-16.2505Z" style="fill: #fff;"/>
        <g>
          <path d="M187.3906.0002h-45.4862C124.7169.0002,109.0928,8.8164,100.1797,23.2445c-.4413.7144-.0956,1.3112.7441,1.3112h68.0016c4.6505,0,8.9018-2.627,10.9814-6.7875l8.2579-16.5152c.3445-.689-.0038-1.2527-.7742-1.2527ZM175.4345,15.5326c-1.2404,2.4815-3.7345,4.0231-6.509,4.0231h-59.7749c8.2614-9.2266,20.0358-14.5555,32.7538-14.5555h38.7966l-5.2664,10.5324Z" style="fill: #fff;"/>
          <path d="M110.3643,41.76h-45.0936c-4.4589,0-8.5673,2.4177-10.7326,6.3151l-8.0549,14.4988c-.393.7075-.0525,1.2862.7567,1.2862h44.3626l-5.6603,11.1398c-4.1872,8.2412-12.6478,13.4324-21.8916,13.4324h-6.6178c-17.639,0-31.9383-14.2993-31.9383-31.9381s14.2992-31.9385,31.9383-31.9385h21.63c4.6502,0,8.9013-2.6273,10.981-6.7868L98.3022,1.2528c.3445-.6889-.0039-1.2528-.7742-1.2528h-41.0342C25.2931,0,0,25.2933,0,56.4938s25.2931,56.4942,56.4938,56.4942h7.5572c18.4873,0,35.4079-10.3824,43.7823-26.8635l13.4769-26.5249c4.15-8.1681-1.7842-17.8395-10.9459-17.8395Z" style="fill: #fff;"/>
        </g>
      </g>
    </g>
  </g>
</svg>