<?xml version="1.0" encoding="utf-8"?>
<!-- Generator: Adobe Illustrator 27.7.0, SVG Export Plug-In . SVG Version: 6.00 Build 0)  -->
<svg version="1.1" id="Layer_1" xmlns="http://www.w3.org/2000/svg" xmlns:xlink="http://www.w3.org/1999/xlink" x="0px" y="0px"
	 viewBox="0 0 1071.9 173.5" style="enable-background:new 0 0 1071.9 173.5;" xml:space="preserve">
<style type="text/css">
	.st0{fill:#FF8449;}
</style>
<g>
	<g>
		<path d="M253.6,41.1h54.5c27,0,46.5,10.4,46.5,37.7c0,26.3-19.7,38.3-46.4,38.3l-33.7-0.1v27.5h-21V41.1z M308.7,98.9
			c13.8,0,23.9-6.1,23.9-20.1c0-11.3-6.9-19.5-23.9-19.5h-34.1v39.6H308.7z"/>
		<path d="M366,66.5h19.6v11.2c8.8-6.6,18.7-11.3,28.1-13.7l5.8,17.9c-13.2,1.3-25.9,5.6-33.8,16.1v46.4H366V66.5z"/>
		<path d="M421.1,105.5c0-21.6,18.1-40.4,48.6-40.4c30.9,0,48.6,19.1,48.6,40.4c0,21.7-18.2,40.4-48.6,40.4
			C438.8,145.9,421.1,126.8,421.1,105.5z M441.7,105.5c0,12.4,10.3,23.3,28,23.3c17.9,0,28-11.1,28-23.3c0-12.5-10.3-23.4-28-23.4
			C451.7,82.1,441.7,93.2,441.7,105.5z"/>
		<path d="M535.2,81.1h-13.4V66.5h13.4c0-9.8,2.7-18.5,8.8-24.6c12.1-12.1,33.8-9.6,43.8-4.8l-6.9,16.5c-5.5-3.2-16.4-4-22,1.6
			c-2.5,2.5-3.9,6.3-4.1,11.3h24.7v14.7h-24.7v63.4h-19.6V81.1z"/>
		<path d="M607.2,55.8c-8.1,0-12.7-5-12.7-10.4c0-6.6,6-10.4,12.7-10.4c6.9,0,12.8,3.9,12.8,10.4C620,50.8,615.4,55.8,607.2,55.8z
			 M597.4,66.5H617v78.1h-19.6V66.5z"/>
		<rect x="636.5" y="34.8" width="19.6" height="109.8"/>
		<path d="M670.9,105.2c0-21.4,18-40.2,47.6-40.2c32.8,0,51.2,23.1,48.1,47.8h-73.8c4.3,12,20.3,15.9,33,15.9
			c10.5,0,19.7-2.6,26.5-5l6.6,15c-10,4.6-20.5,7.2-34.7,7.2C687.3,145.9,670.9,126.7,670.9,105.2z M746,97.6
			c-3.5-10.6-14.6-15.4-26.1-15.4c-11.6,0-23.6,4.9-27.2,15.4H746z"/>
		<path d="M785.9,120.6c11,6.6,24.3,9.3,37,9.3c8.9,0,23.4-1.5,23.4-10.4c0-5.1-5.2-6.7-10.4-6.7c-6.2,0-16.6,2.1-25.8,2.1
			c-16.2,0-29.3-5.9-29.3-22.2c0-19,20-27.5,39.5-27.5c12.4,0,28.5,3.3,37.5,6.8l-6.2,15.2c-12.8-4.8-22.3-6-30.2-6
			c-8.1,0-20,1.8-20,9.8c0,5.2,5.7,6.2,10.9,6.2c7.1,0,16.9-2.1,26.7-2.1c19.4,0,27.9,9.9,27.9,22.1c0,21.3-23.2,28.8-44.7,28.8
			c-15.1,0-31.6-3.5-44.8-10.5L785.9,120.6z"/>
		<path d="M879,133.1c0-6.8,5.6-12.8,15.7-12.8c10.3,0,15.7,6.2,15.7,12.8c0,6.9-5.8,12.8-15.7,12.8C886.1,145.9,879,141,879,133.1z
			"/>
		<path d="M938,55.8c-8.1,0-12.7-5-12.7-10.4c0-6.6,6-10.4,12.7-10.4c6.9,0,12.8,3.9,12.8,10.4C950.8,50.9,946.1,55.8,938,55.8z
			 M928.2,66.5h19.6v78.1h-19.6V66.5z"/>
		<path d="M963.5,105.5c0-21.6,18.1-40.4,48.6-40.4c30.9,0,48.6,19.1,48.6,40.4c0,21.7-18.2,40.4-48.6,40.4
			C981.1,145.9,963.5,126.8,963.5,105.5z M984,105.5c0,12.3,10.2,23.3,28,23.3c17.8,0,28-11,28-23.3c0-12.4-10.3-23.4-28-23.4
			C994.1,82.1,984,93.2,984,105.5z"/>
	</g>
	<path class="st0" d="M216.4,60.7c-0.8-28.2-24.7-50.2-52.8-50.2h-48c-38.3,0-72.8,23.3-87.1,58.8L10.3,114l32.1,0l-19.5,48.4h33.5
		c10.1,0,19.2-6.1,22.9-15.5L92.7,114h72C193.7,114,217.3,90,216.4,60.7z M164.7,83.9h-43.9c-10,0-18.9,6-22.7,15.3l-5.8,14.5H42.9
		l15.3-37.9c8.6-21.3,29.3-35.3,52.3-35.3H164c11.3,0,21.2,8.4,22.2,19.6C187.5,73.1,177.3,83.9,164.7,83.9z"/>
</g>
</svg>