<svg xmlns="http://www.w3.org/2000/svg" viewBox="0 0 938.8136 173.7936">
  <g>
    <path d="M169.791,52.4145c-14.5283-20.9718-28.5456-37.1917-44.0521-52.4145-15.5862,15.301-29.5869,31.5339-44.0521,52.4145C53.9491,30.4941,28.2577,17.0929,0,4.5074c20.1437,45.5324,34.7229,85.2827,36.8172,135.6463.9662,23.2382,45.3569,33.6399,88.9216,33.6399s87.9554-10.4017,88.9216-33.6399c2.0887-50.2331,16.5765-89.8943,36.8172-135.6463-27.8756,12.4153-53.9213,25.9647-81.6867,47.9072ZM215.8361,43.039c-6.5535,19.558-11.9561,40.965-15.5251,61.5059-6.0105-12.3731-12.8043-24.6307-20.2573-36.5435,11.0739-8.9234,22.8397-17.1332,35.7824-24.9624ZM71.4239,68.0014c-7.4536,11.9147-14.2481,24.1735-20.2573,36.5435-3.569-20.5409-8.9715-41.9479-15.5251-61.5059,12.9452,7.8305,24.7098,16.0391,35.7824,24.9624ZM125.7388,123.9262c12.5492-15.7837,24.7826-29.7271,40.0995-43.7229,12.2106,19.7359,22.2627,39.9543,29.906,60.1542-5.1227,6.5134-32.893,15.0185-70.0055,15.0185s-64.8828-8.5051-70.0055-15.0185c7.6439-20.2011,17.696-40.4189,29.9066-60.1542,15.341,14.0186,27.5049,27.8828,40.0989,43.7229ZM125.7388,94.6961c-9.2644-10.7693-19.2658-20.9486-29.7793-30.3094,12.1655-17.704,23.3123-30.85,29.7793-38.038,6.4676,7.1886,17.615,20.3346,29.7793,38.0373-10.5136,9.3608-20.515,19.5407-29.7793,30.31Z" style="fill: #fff;"/>
    <g fill="#fff">
      <path d="M407.4116,70.9513c0-16.0168-6.0358-27.4453-17.9394-33.9673-9.1309-5.0381-22.6562-7.5914-40.2033-7.5914h-46.7117v117.251h31.7563v-30.7554c20.9499,14.0266,45.6872,28.0281,70.6826,33.2482v-27.0876c-11.5416-1.0887-24.1429-7.3087-33.554-12.1736,10.4501-1.8328,19.4951-4.4319,27.2217-13.406,5.8048-6.7358,8.7479-15.3212,8.7479-25.5178ZM368.948,88.9074c-3.7957,3.5646-9.0624,5.3717-15.6542,5.3717-2.5502,0-5.6719-.4442-9.2774-1.3196-8.4276-1.7843-8.2222-1.7083-9.6561-1.8305-.0672-1.46-.047,2.9912-.047-37.228h15.4386c16.5487,0,24.9396,6.6036,24.9396,19.6266,0,6.6184-1.9324,11.793-5.7436,15.3799Z"/>
      <path d="M478.9875,26.6527c-37.2269,0-60.8795,23.4577-60.8795,61.3651,0,37.8215,23.569,61.3651,60.8795,61.3651,35.7245,0,60.882-22.3796,60.882-61.3651,0-38.921-25.0985-61.3651-60.882-61.3651ZM478.9875,124.5477c-19.9149,0-28.1576-16.4572-28.1576-36.5299,0-19.8048,8.1169-36.5293,28.1576-36.5293,19.6996,0,28.1595,16.6512,28.1595,36.5293,0,19.7109-8.4534,36.5299-28.1595,36.5299Z"/>
      <path d="M652.6594,29.3926h-32.6644c-.6944,7.6791-2.2469,16.0106-4.6186,24.7826-3.2679,12.5284-6.4794,19.6213-9.8093,25.6525-6.545-6.211-12.2762-13.0266-17.9907-23.3129-4.9164-8.9938-8.2568-18.1124-9.9396-27.1222h-33.3174c2.612,13.3301,7.5222,26.5835,14.6039,39.4132,8.029,14.7004,17.2844,26.186,28.5166,36.4292-9.3539,8.8037-20.2075,14.6263-35.1405,17.2104v26.8689c30.4027-1.9924,55.0148-16.537,73.1674-43.2435,14.2314-20.9332,23.3772-46.7247,27.1926-76.6783Z"/>
      <path d="M683.0059,29.3926c-18.7513,29.5511-34.6012,82.7943-41.1343,117.251h31.6945c1.1803-7.1629,2.487-13.3789,4.0922-20.1276h42.2056c1.1388,5.9219,2.6895,14.043,3.7253,20.1276h31.7211c-7.98-46.6777-21.8253-86.1162-41.1634-117.251h-31.1409ZM683.7942,103.7807c5.2695-17.0966,9.577-27.5433,14.9956-39.0758,6.4256,12.8591,10.9862,23.7786,14.814,39.0758h-29.8096Z"/>
      <polygon points="800.5361 29.3926 768.7798 29.3926 768.7798 146.6436 846.9074 146.6436 846.9074 122.1346 800.5361 122.1346 800.5361 29.3926"/>
      <polygon points="891.9592 96.8911 933.3394 96.8911 933.3394 72.3828 891.9592 72.3828 891.9592 53.901 935.7543 53.901 935.7543 29.3926 860.2029 29.3926 860.2029 146.6436 938.8136 146.6436 938.8136 122.1346 891.9592 122.1346 891.9592 96.8911"/>
    </g>
  </g>
</svg>