<svg xmlns="http://www.w3.org/2000/svg" viewBox="0 0 1218.86 143.34"><defs><style>.a{fill:#fff;}</style></defs><path class="a" d="M94.27,43.21c0-8.62,6-23.59,21.54-29.88H44.12A27,27,0,0,0,20.8,53.89c.43.74.9,1.47,1.4,2.17l.18.26,47.07,72.46.64.8A27,27,0,0,0,114,128.36l.69-1,14.74-22.89c-9.39-14.64-17-26.29-24.14-37.38C96.58,53.54,94.27,48.86,94.27,43.21Z"/><path class="a" d="M232.43,13.33H137.49a26.74,26.74,0,0,0-13.24,3.49l-.16.09a27,27,0,0,0-13.5,21.28c0,.12,0,.24,0,.37,0,.58-.07,1.17-.07,1.76s0,1.19.06,1.77c0,.27,0,.53.08.79s0,.65.09,1,.11.64.16.95.08.53.13.79.16.68.24,1,.1.47.16.7.21.69.31,1,.13.44.2.66.26.68.39,1l.23.63c.14.34.3.67.46,1s.17.41.27.61.35.66.53,1c.09.17.18.35.28.52l0,.05,0,.09c.21.37.44.74.68,1.1.08.13.17.25.25.37l.47.69.17.24,3.4,5.23,43.67,67.24.65.82a27,27,0,0,0,43.87-1.23l.7-1,46.2-71.1a26.11,26.11,0,0,0,1.6-2.47,27,27,0,0,0-23.4-40.43Z"/><polygon class="a" points="148.78 9 148.78 9 148.78 9 148.78 9"/><path class="a" d="M409.89,119.32H398.15L375,47.88h-.34L351,119.32H339.3l-34-89.39h12.77L345,102.41h.34l24.33-72.48h10.7l23.48,72.48h.34l26.23-72.48h12.77Z"/><path class="a" d="M722.62,29.93c29,0,43.67,20.36,43.67,44.7s-14.67,44.69-43.67,44.69h-50V29.93Zm0,77.66c19.5,0,31.93-13.46,31.93-33s-12.43-33-31.58-33H684.31v65.93Z"/><path class="a" d="M942,122.09c-30.55,0-53.85-19-53.85-47.46S911.46,27.17,942,27.17s53.84,19,53.84,47.46S972.55,122.09,942,122.09Zm42.11-47.46c0-19-16.4-35.73-42.11-35.73S899.9,55.64,899.9,74.63s16.39,35.72,42.11,35.72S984.12,93.61,984.12,74.63Z"/><polygon class="a" points="494.87 29.93 484.86 29.93 434.3 119.33 446.03 119.33 458.97 97.06 465.71 85.33 489.87 41.66 514.03 85.33 472.41 85.33 465.71 97.06 520.59 97.06 533.53 119.33 545.26 119.33 494.87 29.93"/><path class="a" d="M626.81,82.22c9.66-1,24.16-9,24.16-25.71,0-20.2-17.77-26.58-34-26.58H561.58v89.39h11.73V41.66H617c10,0,22.26,1.9,22.26,14.85,0,11.9-10.87,14.84-22.26,14.84H582.2l-6.68,11.73h37.31l25.37,36.24h14.67Z"/><path class="a" d="M849.36,82.22c9.66-1,24.16-9,24.16-25.71,0-20.2-17.78-26.58-34-26.58h-55.4v89.39h11.74V41.66h43.66c10,0,22.26,1.9,22.26,14.85,0,11.9-10.87,14.84-22.26,14.84H804.74l-6.67,11.73h37.31l25.37,36.24h14.67Z"/><path class="a" d="M1091.41,71a23.46,23.46,0,0,0,7.25-17.26c0-12.94-9.49-23.81-24.16-23.81h-61.44v89.39h58c15.7,0,31.75-5.34,31.75-26.4C1102.8,81,1097.28,75.32,1091.41,71Zm-20.36,36.59H1024.8V41.66h46.25c8.45,0,15.88,1.9,15.88,12.08,0,10.7-7.6,12.43-15.88,12.43h-39.3l-6.68,11.74h46c9.66,0,20,2.76,20,15C1091.07,106.21,1081.4,107.59,1071.05,107.59Z"/><polygon class="a" points="1136.11 107.59 1136.11 79.46 1136.11 79.44 1137.96 79.46 1174.25 79.46 1174.25 67.72 1136.11 67.72 1136.11 41.66 1202.72 41.66 1202.72 29.93 1124.37 29.93 1124.37 119.33 1204.62 119.33 1204.62 107.59 1136.11 107.59"/></svg>